<?xml version="1.0" standalone="no"?>
<!DOCTYPE svg PUBLIC "-//W3C//DTD SVG 20010904//EN"
 "http://www.w3.org/TR/2001/REC-SVG-20010904/DTD/svg10.dtd">
<svg version="1.0" xmlns="http://www.w3.org/2000/svg"
 width="512.000000pt" height="512.000000pt" viewBox="0 0 512.000000 512.000000"
 preserveAspectRatio="xMidYMid meet">

<g transform="translate(0.000000,512.000000) scale(0.100000,-0.100000)"
fill="#000000" stroke="none">
<path d="M1204 5109 c-29 -5 -81 -19 -118 -32 -188 -69 -324 -205 -400 -401
l-31 -81 0 -2030 0 -2030 28 -80 c73 -206 221 -351 432 -423 l80 -27 1355 0
c1481 0 1398 -3 1535 60 187 86 313 239 365 441 20 75 20 114 20 1596 l0 1518
-720 0 -720 0 -2 748 -3 747 -885 1 c-487 1 -908 -2 -936 -7z m656 -2879 c165
-31 261 -156 247 -320 -16 -190 -144 -280 -399 -280 l-78 0 0 -165 0 -165
-125 0 -125 0 0 463 c0 255 3 467 7 470 10 11 415 8 473 -3z m840 -15 c182
-58 288 -171 319 -339 41 -227 -40 -420 -216 -514 -97 -52 -162 -62 -395 -62
l-208 0 0 463 c0 255 3 467 8 471 4 5 104 6 222 3 167 -3 227 -8 270 -22z
m1115 -80 l0 -100 -212 -3 -213 -2 0 -75 0 -75 170 0 170 0 0 -100 0 -100
-170 0 -170 0 0 -190 0 -190 -120 0 -120 0 0 470 0 470 333 -2 332 -3 0 -100z"/>
<path d="M1630 1935 l0 -95 74 0 c40 0 87 5 105 11 68 24 80 122 18 159 -25
16 -50 20 -114 20 l-83 0 0 -95z"/>
<path d="M2440 1770 l0 -260 73 0 c185 0 274 91 270 273 -4 159 -106 247 -288
247 l-55 0 0 -260z"/>
</g>
</svg>
